<svg xmlns="http://www.w3.org/2000/svg"><symbol id="rights" viewBox="0 0 24 24"><path fill="none" d="M0 0h24v24H0V0z"/><path d="M11.71 15.29l2.59-2.59a.996.996 0 0 0 0-1.41L11.71 8.7c-.63-.62-1.71-.18-1.71.71v5.17c0 .9 1.08 1.34 1.71.71z"/></symbol><symbol id="receipt" viewBox="0 0 24 24"><path fill="none" d="M0 0h24v24H0V0z"/><path d="M21 2.21a.47.47 0 0 0-.35.15l-.79.79c-.2.2-.51.2-.71 0l-.79-.79c-.2-.2-.51-.2-.71 0l-.79.79c-.2.2-.51.2-.71 0l-.79-.79c-.2-.2-.51-.2-.71 0l-.79.79c-.2.2-.51.2-.71 0l-.79-.79c-.2-.2-.51-.2-.71 0l-.79.79c-.2.2-.51.2-.71 0l-.8-.8c-.2-.2-.51-.2-.71 0l-.79.8c-.2.2-.51.2-.71 0l-.79-.8c-.2-.2-.51-.2-.71 0l-.79.8c-.2.2-.51.2-.71 0l-.79-.8A.5.5 0 0 0 3 2.21V21.8c.13 0 .26-.05.35-.15l.79-.79c.2-.2.51-.2.71 0l.79.79c.2.2.51.2.71 0l.79-.79c.2-.2.51-.2.71 0l.79.79c.2.2.51.2.71 0l.79-.79c.2-.2.51-.2.71 0l.79.79c.2.2.51.2.71 0l.79-.79c.2-.2.51-.2.71 0l.79.79c.2.2.51.2.71 0l.79-.79c.2-.2.51-.2.71 0l.79.79c.2.2.51.2.71 0l.79-.79c.2-.2.51-.2.71 0l.79.79c.1.1.23.15.35.15V2.21zM17 17H7c-.55 0-1-.45-1-1s.45-1 1-1h10c.55 0 1 .45 1 1s-.45 1-1 1zm0-4H7c-.55 0-1-.45-1-1s.45-1 1-1h10c.55 0 1 .45 1 1s-.45 1-1 1zm0-4H7c-.55 0-1-.45-1-1s.45-1 1-1h10c.55 0 1 .45 1 1s-.45 1-1 1z"/></symbol><symbol id="right" viewBox="0 0 24 24"><path fill="none" d="M24 24H0V0h24v24z" opacity=".87"/><path d="M7.38 21.01c.49.49 1.28.49 1.77 0l8.31-8.31a.996.996 0 0 0 0-1.41L9.15 2.98a1.25 1.25 0 0 0-1.77 0 1.25 1.25 0 0 0 0 1.77L14.62 12l-7.25 7.25c-.48.48-.48 1.28.01 1.76z"/></symbol><symbol id="refresh" viewBox="0 0 24 24"><path fill="none" d="M0 0h24v24H0V0z"/><path d="M17.65 6.35a7.95 7.95 0 0 0-6.48-2.31c-3.67.37-6.69 3.35-7.1 7.02C3.52 15.91 7.27 20 12 20a7.98 7.98 0 0 0 7.21-4.56c.32-.67-.16-1.44-.9-1.44-.37 0-.72.2-.88.53a5.994 5.994 0 0 1-6.8 3.31c-2.22-.49-4.01-2.3-4.48-4.52A6.002 6.002 0 0 1 12 6c1.66 0 3.14.69 4.22 1.78l-1.51 1.51c-.63.63-.19 1.71.7 1.71H19c.55 0 1-.45 1-1V6.41c0-.89-1.08-1.34-1.71-.71l-.64.65z"/></symbol><symbol id="round-save-24px" viewBox="0 0 24 24"><path fill="none" d="M0 0h24v24H0V0z"/><path d="M17.59 3.59c-.38-.38-.89-.59-1.42-.59H5a2 2 0 0 0-2 2v14c0 1.1.9 2 2 2h14c1.1 0 2-.9 2-2V7.83c0-.53-.21-1.04-.59-1.41l-2.82-2.83zM12 19c-1.66 0-3-1.34-3-3s1.34-3 3-3 3 1.34 3 3-1.34 3-3 3zm1-10H7c-1.1 0-2-.9-2-2s.9-2 2-2h6c1.1 0 2 .9 2 2s-.9 2-2 2z"/></symbol><symbol id="save" viewBox="0 0 24 24"><path fill="none" d="M0 0h24v24H0V0z"/><path d="M17.59 3.59c-.38-.38-.89-.59-1.42-.59H5a2 2 0 0 0-2 2v14c0 1.1.9 2 2 2h14c1.1 0 2-.9 2-2V7.83c0-.53-.21-1.04-.59-1.41l-2.82-2.83zM12 19c-1.66 0-3-1.34-3-3s1.34-3 3-3 3 1.34 3 3-1.34 3-3 3zm1-10H7c-1.1 0-2-.9-2-2s.9-2 2-2h6c1.1 0 2 .9 2 2s-.9 2-2 2z"/></symbol><symbol id="search" viewBox="0 0 24 24"><path fill="none" d="M0 0h24v24H0V0z"/><path d="M15.5 14h-.79l-.28-.27a6.5 6.5 0 0 0 1.48-5.34c-.47-2.78-2.79-5-5.59-5.34a6.505 6.505 0 0 0-7.27 7.27c.34 2.8 2.56 5.12 5.34 5.59a6.5 6.5 0 0 0 5.34-1.48l.27.28v.79l4.25 4.25c.41.41 1.08.41 1.49 0 .41-.41.41-1.08 0-1.49L15.5 14zm-6 0C7.01 14 5 11.99 5 9.5S7.01 5 9.5 5 14 7.01 14 9.5 11.99 14 9.5 14z"/></symbol><symbol id="security" viewBox="0 0 24 24"><path d="M11.19 1.36l-7 3.11C3.47 4.79 3 5.51 3 6.3V11c0 5.55 3.84 10.74 9 12 5.16-1.26 9-6.45 9-12V6.3c0-.79-.47-1.51-1.19-1.83l-7-3.11c-.51-.23-1.11-.23-1.62 0zM12 11.99h7c-.53 4.12-3.28 7.79-7 8.94V12H5V6.3l7-3.11v8.8z"/></symbol><symbol id="send" viewBox="0 0 24 24"><path fill="none" d="M0 0h24v24H0V0z"/><path d="M3.4 20.4l17.45-7.48a1 1 0 0 0 0-1.84L3.4 3.6a.993.993 0 0 0-1.39.91L2 9.12c0 .5.37.93.87.99L17 12 2.87 13.88c-.5.07-.87.5-.87 1l.01 4.61c0 .71.73 1.2 1.39.91z"/></symbol><symbol id="setting" viewBox="0 0 24 24"><path fill="none" d="M0 0h24v24H0V0z"/><path d="M19.43 12.98c.04-.32.07-.64.07-.98s-.03-.66-.07-.98l2.11-1.65c.19-.15.24-.42.12-.64l-2-3.46c-.12-.22-.39-.3-.61-.22l-2.49 1c-.52-.4-1.08-.73-1.69-.98l-.38-2.65A.488.488 0 0 0 14 2h-4c-.25 0-.46.18-.49.42l-.38 2.65c-.61.25-1.17.59-1.69.98l-2.49-1c-.23-.09-.49 0-.61.22l-2 3.46c-.13.22-.07.49.12.64l2.11 1.65c-.04.32-.07.65-.07.98s.03.66.07.98l-2.11 1.65c-.19.15-.24.42-.12.64l2 3.46c.12.22.39.3.61.22l2.49-1c.52.4 1.08.73 1.69.98l.38 2.65c.03.24.24.42.49.42h4c.25 0 .46-.18.49-.42l.38-2.65c.61-.25 1.17-.59 1.69-.98l2.49 1c.23.09.49 0 .61-.22l2-3.46c.12-.22.07-.49-.12-.64l-2.11-1.65zM12 15.5c-1.93 0-3.5-1.57-3.5-3.5s1.57-3.5 3.5-3.5 3.5 1.57 3.5 3.5-1.57 3.5-3.5 3.5z"/></symbol><symbol id="share" viewBox="0 0 24 24"><path fill="none" d="M0 0h24v24H0V0z"/><path d="M18 16.08c-.76 0-1.44.3-1.96.77L8.91 12.7c.05-.23.09-.46.09-.7s-.04-.47-.09-.7l7.05-4.11c.54.5 1.25.81 2.04.81 1.66 0 3-1.34 3-3s-1.34-3-3-3-3 1.34-3 3c0 .24.04.47.09.7L8.04 9.81C7.5 9.31 6.79 9 6 9c-1.66 0-3 1.34-3 3s1.34 3 3 3c.79 0 1.5-.31 2.04-.81l7.12 4.16c-.05.21-.08.43-.08.65 0 1.61 1.31 2.92 2.92 2.92s2.92-1.31 2.92-2.92-1.31-2.92-2.92-2.92z"/></symbol><symbol id="shopping" viewBox="0 0 24 24"><path fill="none" d="M0 0h24v24H0V0z"/><path d="M7 18c-1.1 0-1.99.9-1.99 2S5.9 22 7 22s2-.9 2-2-.9-2-2-2zM1 3c0 .55.45 1 1 1h1l3.6 7.59-1.35 2.44C4.52 15.37 5.48 17 7 17h11c.55 0 1-.45 1-1s-.45-1-1-1H7l1.1-2h7.45c.75 0 1.41-.41 1.75-1.03l3.58-6.49A.996.996 0 0 0 20.01 4H5.21l-.67-1.43a.993.993 0 0 0-.9-.57H2c-.55 0-1 .45-1 1zm16 15c-1.1 0-1.99.9-1.99 2s.89 2 1.99 2 2-.9 2-2-.9-2-2-2z"/></symbol><symbol id="sleep" viewBox="0 0 24 24"><path fill="none" d="M0 0h24v24H0V0z"/><path d="M7 13c1.66 0 3-1.34 3-3S8.66 7 7 7s-3 1.34-3 3 1.34 3 3 3zm12-6h-6c-1.1 0-2 .9-2 2v5H3V6c0-.55-.45-1-1-1s-1 .45-1 1v13c0 .55.45 1 1 1s1-.45 1-1v-2h18v2c0 .55.45 1 1 1s1-.45 1-1v-8c0-2.21-1.79-4-4-4z"/></symbol><symbol id="size" viewBox="0 0 24 24"><path d="M13 7h-2v2h2V7zm0 4h-2v2h2v-2zm4 0h-2v2h2v-2zM3 3v18h18V3H3zm16 16H5V5h14v14zm-6-4h-2v2h2v-2zm-4-4H7v2h2v-2z"/><path fill="none" d="M0 0h24v24H0z"/></symbol><symbol id="start" viewBox="0 0 24 24"><g fill="none"><path d="M0 0h24v24H0V0z"/><path d="M0 0h24v24H0V0z"/></g><path d="M12 17.27l4.15 2.51c.76.46 1.69-.22 1.49-1.08l-1.1-4.72 3.67-3.18c.67-.58.31-1.68-.57-1.75l-4.83-.41-1.89-4.46c-.34-.81-1.5-.81-1.84 0L9.19 8.63l-4.83.41c-.88.07-1.24 1.17-.57 1.75l3.67 3.18-1.1 4.72c-.2.86.73 1.54 1.49 1.08l4.15-2.5z"/></symbol><symbol id="suscriptores" viewBox="0 0 24 24"><path d="M19 8H5c-.55 0-1-.45-1-1s.45-1 1-1h14c.55 0 1 .45 1 1s-.45 1-1 1zm-2-6H7c-.55 0-1 .45-1 1s.45 1 1 1h10c.55 0 1-.45 1-1s-.45-1-1-1zm5 10v8c0 1.1-.9 2-2 2H4c-1.1 0-2-.9-2-2v-8c0-1.1.9-2 2-2h16c1.1 0 2 .9 2 2zm-6.81 3.56L10 12.73v6.53l5.19-2.82a.5.5 0 0 0 0-.88z"/></symbol><symbol id="superviser" viewBox="0 0 24 24"><path fill="none" d="M0 0h24v24H0V0z"/><path d="M12 2C6.48 2 2 6.48 2 12s4.48 10 10 10 10-4.48 10-10S17.52 2 12 2zm3.61 6.34c1.07 0 1.93.86 1.93 1.93s-.86 1.93-1.93 1.93-1.93-.86-1.93-1.93c-.01-1.07.86-1.93 1.93-1.93zm-6-1.58c1.3 0 2.36 1.06 2.36 2.36s-1.06 2.36-2.36 2.36-2.36-1.06-2.36-2.36c0-1.31 1.05-2.36 2.36-2.36zm0 9.13v3.75c-2.4-.75-4.3-2.6-5.14-4.96 1.05-1.12 3.67-1.69 5.14-1.69.53 0 1.2.08 1.9.22-1.64.87-1.9 2.02-1.9 2.68zM12 20c-.27 0-.53-.01-.79-.04v-4.07c0-1.42 2.94-2.13 4.4-2.13 1.07 0 2.92.39 3.84 1.15C18.28 17.88 15.39 20 12 20z"/></symbol><symbol id="tamayo-black" viewBox="0 0 192 192"><defs><style>.cls-1{fill-rule:evenodd}.cls-2{fill:#bb8f22}.cls-3{fill:#ffc32e}.cls-4{fill:#d39d26}.cls-5{fill:#e1ac28}.cls-6{fill:#fcb81f}</style></defs><path d="M82.72 15.33L35.65 62.4l26.84 26.85 73.91-73.92H82.72zm93.95 67.48l-47.16-47.16-26.84 26.84 74 74V82.81zM55.51 176.67h53.68l47.12-47.12-26.84-26.84-73.96 73.96zM15.33 109.2l47.16 47.15 26.84-26.84-74-74v53.69z" class="cls-1"/><path d="M96 69.16v10.06L112.78 96h10.06L96 69.16z" class="cls-2"/><path d="M69.16 96h10.06L96 79.22V69.16L69.16 96z" class="cls-3"/><path d="M112.78 96L96 112.78v10.06L122.84 96h-10.06z" class="cls-4"/><path d="M79.22 96H69.16L96 122.84v-10.06L79.22 96z" class="cls-5"/><path d="M84.14 84.14h23.73v23.73H84.14z" class="cls-6" transform="rotate(45 95.995 96.002)"/></symbol><symbol id="tamayo-white" viewBox="0 0 192 192"><defs><style>.cls-1{fill:#fff;fill-rule:evenodd}.cls-2{fill:#bb8f22}.cls-3{fill:#ffc32e}.cls-4{fill:#d39d26}.cls-5{fill:#e1ac28}.cls-6{fill:#fcb81f}</style></defs><path d="M82.72 15.33L35.65 62.4l26.84 26.85 73.91-73.92H82.72zm93.95 67.48l-47.16-47.16-26.84 26.84 74 74V82.81zM55.51 176.67h53.68l47.12-47.12-26.84-26.84-73.96 73.96zM15.33 109.2l47.16 47.15 26.84-26.84-74-74v53.69z" class="cls-1"/><path d="M96 69.16v10.06L112.78 96h10.06L96 69.16z" class="cls-2"/><path d="M69.16 96h10.06L96 79.22V69.16L69.16 96z" class="cls-3"/><path d="M112.78 96L96 112.78v10.06L122.84 96h-10.06z" class="cls-4"/><path d="M79.22 96H69.16L96 122.84v-10.06L79.22 96z" class="cls-5"/><path d="M84.14 84.14h23.73v23.73H84.14z" class="cls-6" transform="rotate(45 95.995 96.002)"/></symbol><symbol id="timelapse" viewBox="0 0 24 24"><path fill="none" d="M0 0h24v24H0V0z"/><path d="M16.24 7.76A5.974 5.974 0 0 0 12 6v6l-4.24 4.24c2.34 2.34 6.14 2.34 8.49 0a5.99 5.99 0 0 0-.01-8.48zM12 2C6.48 2 2 6.48 2 12s4.48 10 10 10 10-4.48 10-10S17.52 2 12 2zm0 18c-4.42 0-8-3.58-8-8s3.58-8 8-8 8 3.58 8 8-3.58 8-8 8z"/></symbol><symbol id="tamayo-logo-blanco" viewBox="0 0 760 760"><style>.st0{fill:#fff}.st1{fill:#d49400}</style><path d="M272.7 397l254-254H344.9L181.8 306.1zm214.1 32.3L233.1 683h181.6l162.9-162.9zm0-214.4l-90.9 90.9L650 559.9V378.1zm-123.2 305L110 266.3v181.8l162.7 162.7z" class="st0"/><path d="M379.6 322.1l-79.4 79.4H459zm0 181.8l79.4-79.4H300.2z" class="st1"/></symbol><symbol id="touch" viewBox="0 0 24 24"><path d="M9 11.24V7.5a2.5 2.5 0 0 1 5 0v3.74c1.21-.81 2-2.18 2-3.74C16 5.01 13.99 3 11.5 3S7 5.01 7 7.5c0 1.56.79 2.93 2 3.74zm5.5 2.47c-.28-.14-.58-.21-.89-.21H13v-6c0-.83-.67-1.5-1.5-1.5S10 6.67 10 7.5v10.74l-3.44-.72c-.37-.08-.76.04-1.03.31-.43.44-.43 1.14 0 1.58l4.01 4.01c.38.37.89.58 1.42.58h6.1c1 0 1.84-.73 1.98-1.72l.63-4.47c.12-.85-.32-1.69-1.09-2.07l-4.08-2.03z"/></symbol><symbol id="twitter" viewBox="0 0 32 32"><path d="M32 7.075a12.941 12.941 0 0 1-3.769 1.031 6.601 6.601 0 0 0 2.887-3.631 13.21 13.21 0 0 1-4.169 1.594A6.565 6.565 0 0 0 22.155 4a6.563 6.563 0 0 0-6.563 6.563c0 .512.056 1.012.169 1.494A18.635 18.635 0 0 1 2.23 5.195a6.56 6.56 0 0 0-.887 3.3 6.557 6.557 0 0 0 2.919 5.463 6.565 6.565 0 0 1-2.975-.819v.081a6.565 6.565 0 0 0 5.269 6.437 6.574 6.574 0 0 1-2.968.112 6.588 6.588 0 0 0 6.131 4.563 13.17 13.17 0 0 1-9.725 2.719 18.568 18.568 0 0 0 10.069 2.95c12.075 0 18.681-10.006 18.681-18.681 0-.287-.006-.569-.019-.85A13.216 13.216 0 0 0 32 7.076z"/></symbol><symbol id="upload" viewBox="0 0 24 24"><path fill="none" d="M0 0h24v24H0V0z"/><path d="M19.35 10.04A7.49 7.49 0 0 0 12 4C9.11 4 6.6 5.64 5.35 8.04A5.994 5.994 0 0 0 0 14c0 3.31 2.69 6 6 6h13c2.76 0 5-2.24 5-5 0-2.64-2.05-4.78-4.65-4.96zM14 13v4h-4v-4H7l4.65-4.65c.2-.2.51-.2.71 0L17 13h-3z"/></symbol><symbol id="unknow-file" viewBox="0 0 24 24"><style>.st0{fill:none}</style><path d="M0 0h24v24H0V0z" class="st0"/><path d="M19.4 7.4l-4.8-4.8c-.4-.4-.9-.6-1.4-.6H6c-1.1 0-2 .9-2 2v16c0 1.1.9 2 2 2h12c1.1 0 2-.9 2-2V8.8c0-.5-.2-1-.6-1.4zm-6.5 11h-2v-2h2v2zm0-4.1c-.1.2-.1.4-.1.7H11c0-.4.1-.8.2-1.1.1-.2.1-.3.2-.5.7-1.3 2.2-1.5 2.2-2.8 0-.9-.8-1.8-1.8-1.8-.8 0-1.4.5-1.7 1.2-.1.3-.4.5-.7.5-.6 0-1-.6-.8-1.1.5-1.5 2-2.5 3.8-2.3 1.5.2 2.8 1.5 3 3 .3 2.4-1.9 2.8-2.5 4.2z"/></symbol><symbol id="warning" viewBox="0 0 24 24"><path d="M4.47 21h15.06c1.54 0 2.5-1.67 1.73-3L13.73 4.99c-.77-1.33-2.69-1.33-3.46 0L2.74 18c-.77 1.33.19 3 1.73 3zM12 14c-.55 0-1-.45-1-1v-2c0-.55.45-1 1-1s1 .45 1 1v2c0 .55-.45 1-1 1zm1 4h-2v-2h2v2z"/></symbol><symbol id="video" viewBox="0 0 24 24"><path d="M18 4l1.82 3.64c.08.16-.04.36-.22.36h-1.98c-.38 0-.73-.21-.89-.55L15 4h-2l1.82 3.64c.08.16-.04.36-.22.36h-1.98c-.38 0-.73-.21-.89-.55L10 4H8l1.82 3.64c.08.16-.04.36-.22.36H7.62c-.38 0-.73-.21-.9-.55L5 4H4c-1.1 0-2 .9-2 2v12c0 1.1.9 2 2 2h16c1.1 0 2-.9 2-2V5c0-.55-.45-1-1-1h-3z"/></symbol><symbol id="xlsm" viewBox="-467 269 24 24"><style>.st0{fill:#0f9d58}</style><path d="M-448 272h-14c-1.1 0-2 .9-2 2v14c0 1.1.9 2 2 2h14c1.1 0 2-.9 2-2v-14c0-1.1-.9-2-2-2zm-12.2 14h-2v-2h2v2zm0-4h-2v-2h2v2zm0-4h-2v-2h2v2zm12.4 8h-10.4v-2h10.4v2zm0-4h-10.4v-2h10.4v2zm0-4h-10.4v-2h10.4v2z" class="st0"/></symbol><symbol id="word" viewBox="-467 269 24 24"><style>.st0{fill:#4285f4}</style><path d="M-461 271c-1.1 0-2 .9-2 2v16c0 1.1.9 2 2 2h12c1.1 0 2-.9 2-2v-12l-6-6h-8zm7 7v-5.5l5.5 5.5h-5.5z" class="st0"/></symbol><symbol id="web" viewBox="0 0 24 24"><path d="M19 4H5a2 2 0 0 0-2 2v12a2 2 0 0 0 2 2h14c1.1 0 2-.9 2-2V6a2 2 0 0 0-2-2zm-1 14H6c-.55 0-1-.45-1-1V8h14v9c0 .55-.45 1-1 1z"/></symbol><symbol id="xlsx" viewBox="-467 269 24 24"><style>.st0{fill:#0f9d58}</style><path d="M-448 272h-14c-1.1 0-2 .9-2 2v14c0 1.1.9 2 2 2h14c1.1 0 2-.9 2-2v-14c0-1.1-.9-2-2-2zm-12.2 14h-2v-2h2v2zm0-4h-2v-2h2v2zm0-4h-2v-2h2v2zm12.4 8h-10.4v-2h10.4v2zm0-4h-10.4v-2h10.4v2zm0-4h-10.4v-2h10.4v2z" class="st0"/></symbol><symbol id="xltm" viewBox="-467 269 24 24"><style>.st0{fill:#0f9d58}</style><path d="M-448 272h-14c-1.1 0-2 .9-2 2v14c0 1.1.9 2 2 2h14c1.1 0 2-.9 2-2v-14c0-1.1-.9-2-2-2zm-12.2 14h-2v-2h2v2zm0-4h-2v-2h2v2zm0-4h-2v-2h2v2zm12.4 8h-10.4v-2h10.4v2zm0-4h-10.4v-2h10.4v2zm0-4h-10.4v-2h10.4v2z" class="st0"/></symbol><symbol id="youtube" viewBox="0 0 32 32"><path d="M31.681 9.6s-.313-2.206-1.275-3.175C29.187 5.15 27.825 5.144 27.2 5.069c-4.475-.325-11.194-.325-11.194-.325h-.012s-6.719 0-11.194.325c-.625.075-1.987.081-3.206 1.356C.631 7.394.325 9.6.325 9.6s-.319 2.588-.319 5.181v2.425c0 2.587.319 5.181.319 5.181s.313 2.206 1.269 3.175c1.219 1.275 2.819 1.231 3.531 1.369 2.563.244 10.881.319 10.881.319s6.725-.012 11.2-.331c.625-.075 1.988-.081 3.206-1.356.962-.969 1.275-3.175 1.275-3.175s.319-2.587.319-5.181v-2.425c-.006-2.588-.325-5.181-.325-5.181zM12.694 20.15v-8.994l8.644 4.513-8.644 4.481z"/></symbol><symbol id="xltx" viewBox="-467 269 24 24"><style>.st0{fill:#0f9d58}</style><path d="M-448 272h-14c-1.1 0-2 .9-2 2v14c0 1.1.9 2 2 2h14c1.1 0 2-.9 2-2v-14c0-1.1-.9-2-2-2zm-12.2 14h-2v-2h2v2zm0-4h-2v-2h2v2zm0-4h-2v-2h2v2zm12.4 8h-10.4v-2h10.4v2zm0-4h-10.4v-2h10.4v2zm0-4h-10.4v-2h10.4v2z" class="st0"/></symbol><symbol id="archive" viewBox="0 0 24 24"><path fill="none" d="M0 0h24v24H0V0z"/><path d="M20.54 5.23l-1.39-1.68C18.88 3.21 18.47 3 18 3H6c-.47 0-.88.21-1.16.55L3.46 5.23C3.17 5.57 3 6.02 3 6.5V19c0 1.1.9 2 2 2h14c1.1 0 2-.9 2-2V6.5c0-.48-.17-.93-.46-1.27zm-8.89 11.92L6.5 12H10v-2h4v2h3.5l-5.15 5.15c-.19.19-.51.19-.7 0zM5.12 5l.81-1h12l.94 1H5.12z"/></symbol><symbol id="add" viewBox="0 0 24 24"><path fill="none" d="M0 0h24v24H0V0z"/><path d="M18 13h-5v5c0 .55-.45 1-1 1s-1-.45-1-1v-5H6c-.55 0-1-.45-1-1s.45-1 1-1h5V6c0-.55.45-1 1-1s1 .45 1 1v5h5c.55 0 1 .45 1 1s-.45 1-1 1z"/></symbol><symbol id="back" viewBox="0 0 24 24"><path fill="none" d="M0 0h24v24H0V0z"/><path d="M19 11H7.83l4.88-4.88c.39-.39.39-1.03 0-1.42a.996.996 0 0 0-1.41 0l-6.59 6.59a.996.996 0 0 0 0 1.41l6.59 6.59a.996.996 0 1 0 1.41-1.41L7.83 13H19c.55 0 1-.45 1-1s-.45-1-1-1z"/></symbol><symbol id="attach" viewBox="0 0 24 24"><path fill="none" d="M0 0h24v24H0V0z"/><path d="M16.5 6.75v10.58c0 2.09-1.53 3.95-3.61 4.15A3.993 3.993 0 0 1 8.5 17.5V5.14c0-1.31.94-2.5 2.24-2.63A2.5 2.5 0 0 1 13.5 5v10.5c0 .55-.45 1-1 1s-1-.45-1-1V6.75c0-.41-.34-.75-.75-.75s-.75.34-.75.75v8.61c0 1.31.94 2.5 2.24 2.63A2.5 2.5 0 0 0 15 15.5V5.17c0-2.09-1.53-3.95-3.61-4.15A3.998 3.998 0 0 0 7 5v12.27c0 2.87 2.1 5.44 4.96 5.71 3.29.3 6.04-2.26 6.04-5.48V6.75c0-.41-.34-.75-.75-.75s-.75.34-.75.75z"/></symbol><symbol id="bath" viewBox="0 0 24 24"><path fill="none" d="M.01 0h24v24h-24V0z"/><path d="M5.5 21v-6.5H5c-.55 0-1-.45-1-1V9c0-1.1.9-2 2-2h3c1.1 0 2 .9 2 2v4.5c0 .55-.45 1-1 1h-.5V21c0 .55-.45 1-1 1h-2c-.55 0-1-.45-1-1zM18 21v-5h1.61c.68 0 1.16-.67.95-1.32l-2.1-6.31A2.01 2.01 0 0 0 16.56 7h-.12a2 2 0 0 0-1.9 1.37l-2.1 6.31c-.22.65.26 1.32.95 1.32H15v5c0 .55.45 1 1 1h1c.55 0 1-.45 1-1zM7.5 6c1.11 0 2-.89 2-2s-.89-2-2-2-2 .89-2 2 .89 2 2 2zm9 0c1.11 0 2-.89 2-2s-.89-2-2-2-2 .89-2 2 .89 2 2 2z"/></symbol><symbol id="bed" viewBox="0 0 24 24"><path d="M3.6 16.7v2.1H2.2V6c0-.6.5-.9 1-.7.3.1.4.4.4.7v6.4H21c.6 0 .8.3.8.8v5.5h-1.4v-2.1c-5.6.1-11.2.1-16.8.1z"/><path d="M20.4 11.9H8.9V9c0-.4.2-.5.5-.5H17c.9 0 1.8.2 2.6.8.4.3.8.7.8 1.2v1.4zM8.3 9c0 1-.8 1.8-1.7 1.8-1 0-1.8-.8-1.8-1.8s.8-1.8 1.8-1.8c.9 0 1.7.8 1.7 1.8zm-1.8 2.9H5.3c-.3 0-.5-.2-.5-.5-.1-.2.2-.4.5-.4h2.5c.3 0 .5.2.5.5s-.2.5-.5.5c-.5-.1-.9-.1-1.3-.1z"/></symbol><symbol id="building" viewBox="0 0 24 24"><path fill="none" d="M0 0h24v24H0V0z"/><path d="M12 7V5c0-1.1-.9-2-2-2H4c-1.1 0-2 .9-2 2v14c0 1.1.9 2 2 2h16c1.1 0 2-.9 2-2V9c0-1.1-.9-2-2-2h-8zM6 19H4v-2h2v2zm0-4H4v-2h2v2zm0-4H4V9h2v2zm0-4H4V5h2v2zm4 12H8v-2h2v2zm0-4H8v-2h2v2zm0-4H8V9h2v2zm0-4H8V5h2v2zm9 12h-7v-2h2v-2h-2v-2h2v-2h-2V9h7c.55 0 1 .45 1 1v8c0 .55-.45 1-1 1zm-1-8h-2v2h2v-2zm0 4h-2v2h2v-2z"/></symbol><symbol id="bookmark" viewBox="0 0 24 24"><path fill="none" d="M0 0h24v24H0V0z"/><path d="M17 3H7c-1.1 0-2 .9-2 2v16l7-3 7 3V5c0-1.1-.9-2-2-2z"/></symbol><symbol id="bloque" viewBox="0 0 24 24"><path fill="none" d="M0 0h24v24H0V0z"/><path d="M4 13h6c.55 0 1-.45 1-1V4c0-.55-.45-1-1-1H4c-.55 0-1 .45-1 1v8c0 .55.45 1 1 1zm0 8h6c.55 0 1-.45 1-1v-4c0-.55-.45-1-1-1H4c-.55 0-1 .45-1 1v4c0 .55.45 1 1 1zm10 0h6c.55 0 1-.45 1-1v-8c0-.55-.45-1-1-1h-6c-.55 0-1 .45-1 1v8c0 .55.45 1 1 1zM13 4v4c0 .55.45 1 1 1h6c.55 0 1-.45 1-1V4c0-.55-.45-1-1-1h-6c-.55 0-1 .45-1 1z"/></symbol><symbol id="call" viewBox="0 0 24 24"><path d="M19.2 15.3l-2.5-.3c-.6-.1-1.2.1-1.6.6l-1.8 1.8c-2.8-1.4-5.1-3.8-6.6-6.6l1.9-1.9c.4-.4.6-1 .6-1.6l-.5-2.5c-.1-1-1-1.8-2-1.8H5c-1.1 0-2 .9-2 2.1.5 8.5 7.4 15.4 15.9 15.9 1.1 0 2.1-.9 2.1-2v-1.7c0-1.1-.8-1.9-1.8-2zM19 3h-4c-.5 0-1 .4-1 1s.5 1 1 1h1.6l-4.3 4.3c-.4.4-.4 1 0 1.4s1 .4 1.4 0L18 6.4V8c0 .6.4 1 1 1 .5 0 1-.4 1-1V4c0-.6-.4-1-1-1z"/></symbol><symbol id="cancel" viewBox="0 0 24 24"><path fill="none" d="M0 0h24v24H0V0z" opacity=".87"/><path d="M12 2C6.47 2 2 6.47 2 12s4.47 10 10 10 10-4.47 10-10S17.53 2 12 2zm4.3 14.3a.996.996 0 0 1-1.41 0L12 13.41 9.11 16.3a.996.996 0 1 1-1.41-1.41L10.59 12 7.7 9.11A.996.996 0 1 1 9.11 7.7L12 10.59l2.89-2.89a.996.996 0 1 1 1.41 1.41L13.41 12l2.89 2.89c.38.38.38 1.02 0 1.41z"/></symbol><symbol id="car" viewBox="0 0 24 24"><path fill="none" d="M0 0h24v24H0V0z"/><path d="M18.92 5.01C18.72 4.42 18.16 4 17.5 4h-11c-.66 0-1.21.42-1.42 1.01l-1.97 5.67c-.07.21-.11.43-.11.66v7.16c0 .83.67 1.5 1.5 1.5S6 19.33 6 18.5V18h12v.5c0 .82.67 1.5 1.5 1.5.82 0 1.5-.67 1.5-1.5v-7.16c0-.22-.04-.45-.11-.66l-1.97-5.67zM6.5 15c-.83 0-1.5-.67-1.5-1.5S5.67 12 6.5 12s1.5.67 1.5 1.5S7.33 15 6.5 15zm11 0c-.83 0-1.5-.67-1.5-1.5s.67-1.5 1.5-1.5 1.5.67 1.5 1.5-.67 1.5-1.5 1.5zM5 10l1.27-3.82c.14-.4.52-.68.95-.68h9.56c.43 0 .81.28.95.68L19 10H5z"/></symbol><symbol id="cell" viewBox="0 0 24 24"><path d="M17 1.01L7 1c-1.1 0-2 .9-2 2v18c0 1.1.9 2 2 2h10c1.1 0 2-.9 2-2V3c0-1.1-.9-1.99-2-1.99zM17 19H7V5h10v14z"/></symbol><symbol id="check-outline" viewBox="0 0 24 24"><path fill="none" d="M0 0h24v24H0V0z"/><path d="M18 19H6c-.55 0-1-.45-1-1V6c0-.55.45-1 1-1h12c.55 0 1 .45 1 1v12c0 .55-.45 1-1 1zm1-16H5c-1.1 0-2 .9-2 2v14c0 1.1.9 2 2 2h14c1.1 0 2-.9 2-2V5c0-1.1-.9-2-2-2z"/></symbol><symbol id="check" viewBox="0 0 24 24"><path fill="none" d="M0 0h24v24H0V0z"/><path d="M9 16.17L5.53 12.7a.996.996 0 1 0-1.41 1.41l4.18 4.18c.39.39 1.02.39 1.41 0L20.29 7.71a.996.996 0 1 0-1.41-1.41L9 16.17z"/></symbol><symbol id="check-w" viewBox="0 0 24 24"><style>.st0{fill:none}.st1{fill:#fff}</style><path d="M0 0h24v24H0V0z" class="st0"/><path d="M10.3 17.8c-.5.5-1.4.5-1.9 0L3.5 13c-.5-.5-.5-1.4 0-1.9s1.4-.5 1.9 0L9.3 15l9.3-9.3c.5-.5 1.4-.5 1.9 0s.5 1.4 0 1.9L10.3 17.8z" class="st1"/></symbol><symbol id="check-filled" viewBox="0 0 24 24"><path fill="none" d="M0 0h24v24H0V0z"/><path d="M19 3H5c-1.1 0-2 .9-2 2v14c0 1.1.9 2 2 2h14c1.1 0 2-.9 2-2V5c0-1.1-.9-2-2-2zm-8.29 13.29a.996.996 0 0 1-1.41 0L5.71 12.7a.996.996 0 1 1 1.41-1.41L10 14.17l6.88-6.88a.996.996 0 1 1 1.41 1.41l-7.58 7.59z"/></symbol><symbol id="clock" viewBox="0 0 24 24"><path d="M11.99 2C6.47 2 2 6.48 2 12s4.47 10 9.99 10C17.52 22 22 17.52 22 12S17.52 2 11.99 2zM12 20c-4.42 0-8-3.58-8-8s3.58-8 8-8 8 3.58 8 8-3.58 8-8 8z"/><path fill="none" d="M0 0h24v24H0z"/><path d="M12.5 7H11v6l5.25 3.15.75-1.23-4.5-2.67z"/></symbol><symbol id="check-round" viewBox="0 0 24 24"><path fill="none" d="M0 0h24v24H0V0z"/><path d="M12 2C6.48 2 2 6.48 2 12s4.48 10 10 10 10-4.48 10-10S17.52 2 12 2zM9.29 16.29L5.7 12.7a.996.996 0 1 1 1.41-1.41L10 14.17l6.88-6.88a.996.996 0 1 1 1.41 1.41l-7.59 7.59a.996.996 0 0 1-1.41 0z"/></symbol><symbol id="clone" viewBox="0 0 24 24"><path fill="none" d="M0 0h24v24H0V0z"/><path d="M15 1H4c-1.1 0-2 .9-2 2v13c0 .55.45 1 1 1s1-.45 1-1V4c0-.55.45-1 1-1h10c.55 0 1-.45 1-1s-.45-1-1-1zm.59 4.59l4.83 4.83c.37.37.58.88.58 1.41V21c0 1.1-.9 2-2 2H7.99C6.89 23 6 22.1 6 21l.01-14c0-1.1.89-2 1.99-2h6.17c.53 0 1.04.21 1.42.59zM15 12h4.5L14 6.5V11c0 .55.45 1 1 1z"/></symbol><symbol id="conection-off" viewBox="0 0 24 24"><path fill="none" d="M0 0h24v24H0V0z"/><path d="M24 15c0-2.64-2.05-4.78-4.65-4.96A7.49 7.49 0 0 0 12 4c-1.33 0-2.57.36-3.65.97l1.49 1.49C10.51 6.17 11.23 6 12 6c3.04 0 5.5 2.46 5.5 5.5v.5H19a2.996 2.996 0 0 1 1.79 5.4l1.41 1.41c1.09-.92 1.8-2.27 1.8-3.81zM3.71 4.56a.996.996 0 0 0 0 1.41l2.06 2.06h-.42a5.99 5.99 0 0 0-5.29 6.79C.46 17.84 3.19 20 6.22 20h11.51l1.29 1.29a.996.996 0 1 0 1.41-1.41L5.12 4.56a.996.996 0 0 0-1.41 0zM6 18c-2.21 0-4-1.79-4-4s1.79-4 4-4h1.73l8 8H6z"/></symbol><symbol id="copy" viewBox="0 0 24 24"><path fill="none" d="M0 0h24v24H0V0z"/><path d="M15 1H4c-1.1 0-2 .9-2 2v13c0 .55.45 1 1 1s1-.45 1-1V4c0-.55.45-1 1-1h10c.55 0 1-.45 1-1s-.45-1-1-1zm.59 4.59l4.83 4.83c.37.37.58.88.58 1.41V21c0 1.1-.9 2-2 2H7.99C6.89 23 6 22.1 6 21l.01-14c0-1.1.89-2 1.99-2h6.17c.53 0 1.04.21 1.42.59zM15 12h4.5L14 6.5V11c0 .55.45 1 1 1z"/></symbol><symbol id="close" viewBox="0 0 24 24"><path fill="none" d="M0 0h24v24H0V0z"/><path d="M18.3 5.71a.996.996 0 0 0-1.41 0L12 10.59 7.11 5.7A.996.996 0 1 0 5.7 7.11L10.59 12 5.7 16.89a.996.996 0 1 0 1.41 1.41L12 13.41l4.89 4.89a.996.996 0 1 0 1.41-1.41L13.41 12l4.89-4.89c.38-.38.38-1.02 0-1.4z"/></symbol><symbol id="customer" viewBox="0 0 24 24"><path fill="none" d="M0 0h24v24H0V0z"/><path d="M7 18c-1.1 0-1.99.9-1.99 2S5.9 22 7 22s2-.9 2-2-.9-2-2-2zM1 3c0 .55.45 1 1 1h1l3.6 7.59-1.35 2.44C4.52 15.37 5.48 17 7 17h11c.55 0 1-.45 1-1s-.45-1-1-1H7l1.1-2h7.45c.75 0 1.41-.41 1.75-1.03l3.58-6.49A.996.996 0 0 0 20.01 4H5.21l-.67-1.43a.993.993 0 0 0-.9-.57H2c-.55 0-1 .45-1 1zm16 15c-1.1 0-1.99.9-1.99 2s.89 2 1.99 2 2-.9 2-2-.9-2-2-2z"/></symbol><symbol id="delete" viewBox="0 0 24 24"><path fill="none" d="M0 0h24v24H0V0z"/><path d="M6 19c0 1.1.9 2 2 2h8c1.1 0 2-.9 2-2V9c0-1.1-.9-2-2-2H8c-1.1 0-2 .9-2 2v10zM18 4h-2.5l-.71-.71c-.18-.18-.44-.29-.7-.29H9.91c-.26 0-.52.11-.7.29L8.5 4H6c-.55 0-1 .45-1 1s.45 1 1 1h12c.55 0 1-.45 1-1s-.45-1-1-1z"/></symbol><symbol id="date" viewBox="0 0 24 24"><path fill="none" d="M0 0h24v24H0V0z"/><path d="M20 3h-1V2c0-.55-.45-1-1-1s-1 .45-1 1v1H7V2c0-.55-.45-1-1-1s-1 .45-1 1v1H4c-1.1 0-2 .9-2 2v16c0 1.1.9 2 2 2h16c1.1 0 2-.9 2-2V5c0-1.1-.9-2-2-2zm-1 18H5c-.55 0-1-.45-1-1V8h16v12c0 .55-.45 1-1 1z"/></symbol><symbol id="details" viewBox="0 0 24 24"><path fill="none" d="M0 0h24v24H0V0z"/><path d="M3.84 5.49l7.29 12.96c.38.68 1.36.68 1.74 0l7.29-12.96A.998.998 0 0 0 19.29 4H4.71c-.76 0-1.25.82-.87 1.49zM6.38 6h11.25L12 16 6.38 6z"/></symbol><symbol id="down" viewBox="0 0 24 24"><path fill="none" d="M0 0h24v24H0V0z"/><path d="M11 5v11.17l-4.88-4.88c-.39-.39-1.03-.39-1.42 0a.996.996 0 0 0 0 1.41l6.59 6.59c.39.39 1.02.39 1.41 0l6.59-6.59a.996.996 0 1 0-1.41-1.41L13 16.17V5c0-.55-.45-1-1-1s-1 .45-1 1z"/></symbol><symbol id="distribucion" viewBox="0 0 24 24"><path fill="none" d="M0 0h24v24H0V0z"/><path d="M3 5v14c0 1.1.9 2 2 2h14c1.1 0 2-.9 2-2V5c0-1.1-.9-2-2-2H5c-1.1 0-2 .9-2 2zm8 14H6c-.55 0-1-.45-1-1v-5h5c.55 0 1 .45 1 1v5zm-1-8H5V6c0-.55.45-1 1-1h5v5c0 .55-.45 1-1 1zm8 8h-5v-5c0-.55.45-1 1-1h5v5c0 .55-.45 1-1 1zm1-8h-5c-.55 0-1-.45-1-1V5h5c.55 0 1 .45 1 1v5z"/></symbol><symbol id="doc" viewBox="0 0 24 24"><path fill="none" d="M0 0h24v24H0V0z"/><path d="M6 2c-1.1 0-1.99.9-1.99 2L4 20c0 1.1.89 2 1.99 2H18c1.1 0 2-.9 2-2V8.83c0-.53-.21-1.04-.59-1.41l-4.83-4.83c-.37-.38-.88-.59-1.41-.59H6zm7 6V3.5L18.5 9H14c-.55 0-1-.45-1-1z"/></symbol><symbol id="download" viewBox="0 0 24 24"><path fill="none" d="M0 0h24v24H0V0z"/><path d="M19.35 10.04A7.49 7.49 0 0 0 12 4C9.11 4 6.6 5.64 5.35 8.04A5.994 5.994 0 0 0 0 14c0 3.31 2.69 6 6 6h13c2.76 0 5-2.24 5-5 0-2.64-2.05-4.78-4.65-4.96zM17 13l-4.65 4.65c-.2.2-.51.2-.71 0L7 13h3V9h4v4h3z"/></symbol><symbol id="downs" viewBox="0 0 24 24"><path fill="none" d="M0 0h24v24H0V0z"/><path d="M8.71 11.71l2.59 2.59c.39.39 1.02.39 1.41 0l2.59-2.59c.63-.63.18-1.71-.71-1.71H9.41c-.89 0-1.33 1.08-.7 1.71z"/></symbol><symbol id="edit" viewBox="0 0 24 24"><path fill="none" d="M0 0h24v24H0V0z"/><path d="M3 17.46v3.04c0 .28.22.5.5.5h3.04c.13 0 .26-.05.35-.15L17.81 9.94l-3.75-3.75L3.15 17.1c-.1.1-.15.22-.15.36zM20.71 7.04a.996.996 0 0 0 0-1.41l-2.34-2.34a.996.996 0 0 0-1.41 0l-1.83 1.83 3.75 3.75 1.83-1.83z"/></symbol><symbol id="edit-view" viewBox="0 0 24 24"><path fill="none" d="M0 0h24v24H0V0z"/><path d="M3 17.46v3.04c0 .28.22.5.5.5h3.04c.13 0 .26-.05.35-.15L17.81 9.94l-3.75-3.75L3.15 17.1c-.1.1-.15.22-.15.36zM20.71 7.04a.996.996 0 0 0 0-1.41l-2.34-2.34a.996.996 0 0 0-1.41 0l-1.83 1.83 3.75 3.75 1.83-1.83z"/></symbol><symbol id="email" viewBox="0 0 24 24"><path fill="none" d="M0 0h24v24H0V0z"/><path d="M20 4H4c-1.1 0-1.99.9-1.99 2L2 18c0 1.1.9 2 2 2h16c1.1 0 2-.9 2-2V6c0-1.1-.9-2-2-2zm-.4 4.25l-7.07 4.42c-.32.2-.74.2-1.06 0L4.4 8.25a.85.85 0 1 1 .9-1.44L12 11l6.7-4.19a.85.85 0 1 1 .9 1.44z"/></symbol><symbol id="edit-w" viewBox="0 0 24 24"><style>.st0{fill:none}.st1{fill:#fff}</style><path d="M0 0h24v24H0V0z" class="st0"/><path d="M3 17.5v3c0 .3.2.5.5.5h3c.1 0 .3 0 .3-.1l11-11L14 6.1l-10.8 11c-.1.1-.2.2-.2.4zM20.7 7c.4-.4.4-1 0-1.4l-2.3-2.3c-.4-.4-1-.4-1.4 0l-1.8 1.8L19 8.9c-.1 0 1.7-1.9 1.7-1.9z" class="st1"/></symbol><symbol id="employee" viewBox="0 0 24 24"><path fill="none" d="M0 0h24v24H0V0z"/><path d="M20 6h-4V4c0-1.11-.89-2-2-2h-4c-1.11 0-2 .89-2 2v2H4c-1.11 0-1.99.89-1.99 2L2 19c0 1.11.89 2 2 2h16c1.11 0 2-.89 2-2V8c0-1.11-.89-2-2-2zm-6 0h-4V4h4v2z"/></symbol><symbol id="explore" viewBox="0 0 24 24"><path fill="none" d="M0 0h24v24H0V0z"/><path d="M12 10.9c-.61 0-1.1.49-1.1 1.1s.49 1.1 1.1 1.1c.61 0 1.1-.49 1.1-1.1s-.49-1.1-1.1-1.1zM12 2C6.48 2 2 6.48 2 12s4.48 10 10 10 10-4.48 10-10S17.52 2 12 2zm2.19 12.19L6 18l3.81-8.19L18 6l-3.81 8.19z"/></symbol><symbol id="error" viewBox="0 0 24 24"><path d="M12 2C6.48 2 2 6.48 2 12s4.48 10 10 10 10-4.48 10-10S17.52 2 12 2zm0 11c-.55 0-1-.45-1-1V8c0-.55.45-1 1-1s1 .45 1 1v4c0 .55-.45 1-1 1zm1 4h-2v-2h2v2z"/></symbol><symbol id="extension" viewBox="0 0 24 24"><path fill="none" d="M0 0h24v24H0V0z"/><path d="M20.5 11H19V7c0-1.1-.9-2-2-2h-4V3.5a2.5 2.5 0 0 0-5 0V5H4c-1.1 0-1.99.9-1.99 2v3.8H3.5c1.49 0 2.7 1.21 2.7 2.7s-1.21 2.7-2.7 2.7H2V20c0 1.1.9 2 2 2h3.8v-1.5c0-1.49 1.21-2.7 2.7-2.7s2.7 1.21 2.7 2.7V22H17c1.1 0 2-.9 2-2v-4h1.5a2.5 2.5 0 0 0 0-5z"/></symbol><symbol id="eye-no" viewBox="0 0 24 24"><path fill="none" d="M0 0h24v24H0V0zm0 0h24v24H0V0zm0 0h24v24H0V0zm0 0h24v24H0V0z"/><path d="M12 6.5c2.76 0 5 2.24 5 5 0 .51-.1 1-.24 1.46l3.06 3.06c1.39-1.23 2.49-2.77 3.18-4.53C21.27 7.11 17 4 12 4c-1.27 0-2.49.2-3.64.57l2.17 2.17c.47-.14.96-.24 1.47-.24zM2.71 3.16a.996.996 0 0 0 0 1.41l1.97 1.97A11.892 11.892 0 0 0 1 11.5C2.73 15.89 7 19 12 19c1.52 0 2.97-.3 4.31-.82l2.72 2.72a.996.996 0 1 0 1.41-1.41L4.13 3.16c-.39-.39-1.03-.39-1.42 0zM12 16.5c-2.76 0-5-2.24-5-5 0-.77.18-1.5.49-2.14l1.57 1.57c-.03.18-.06.37-.06.57 0 1.66 1.34 3 3 3 .2 0 .38-.03.57-.07L14.14 16c-.65.32-1.37.5-2.14.5zm2.97-5.33a2.97 2.97 0 0 0-2.64-2.64l2.64 2.64z"/></symbol><symbol id="facebook" viewBox="0 0 32 32"><path d="M29 0H3C1.35 0 0 1.35 0 3v26c0 1.65 1.35 3 3 3h13V18h-4v-4h4v-2c0-3.306 2.694-6 6-6h4v4h-4c-1.1 0-2 .9-2 2v2h6l-1 4h-5v14h9c1.65 0 3-1.35 3-3V3c0-1.65-1.35-3-3-3z"/></symbol><symbol id="eye" viewBox="0 0 24 24"><path fill="none" d="M0 0h24v24H0V0z"/><path d="M12 4.5C7 4.5 2.73 7.61 1 12c1.73 4.39 6 7.5 11 7.5s9.27-3.11 11-7.5c-1.73-4.39-6-7.5-11-7.5zM12 17c-2.76 0-5-2.24-5-5s2.24-5 5-5 5 2.24 5 5-2.24 5-5 5zm0-8c-1.66 0-3 1.34-3 3s1.34 3 3 3 3-1.34 3-3-1.34-3-3-3z"/></symbol><symbol id="filter" viewBox="0 0 24 24"><path fill="none" d="M0 0h24v24H0V0z"/><path d="M11 18h2c.55 0 1-.45 1-1s-.45-1-1-1h-2c-.55 0-1 .45-1 1s.45 1 1 1zM3 7c0 .55.45 1 1 1h16c.55 0 1-.45 1-1s-.45-1-1-1H4c-.55 0-1 .45-1 1zm4 6h10c.55 0 1-.45 1-1s-.45-1-1-1H7c-.55 0-1 .45-1 1s.45 1 1 1z"/></symbol><symbol id="grid" viewBox="0 0 24 24"><path fill="none" d="M0 0h24v24H0V0z"/><path d="M5 11h3c.55 0 1-.45 1-1V6c0-.55-.45-1-1-1H5c-.55 0-1 .45-1 1v4c0 .55.45 1 1 1zm0 7h3c.55 0 1-.45 1-1v-4c0-.55-.45-1-1-1H5c-.55 0-1 .45-1 1v4c0 .55.45 1 1 1zm6 0h3c.55 0 1-.45 1-1v-4c0-.55-.45-1-1-1h-3c-.55 0-1 .45-1 1v4c0 .55.45 1 1 1zm6 0h3c.55 0 1-.45 1-1v-4c0-.55-.45-1-1-1h-3c-.55 0-1 .45-1 1v4c0 .55.45 1 1 1zm-6-7h3c.55 0 1-.45 1-1V6c0-.55-.45-1-1-1h-3c-.55 0-1 .45-1 1v4c0 .55.45 1 1 1zm5-5v4c0 .55.45 1 1 1h3c.55 0 1-.45 1-1V6c0-.55-.45-1-1-1h-3c-.55 0-1 .45-1 1z"/></symbol><symbol id="folder" viewBox="0 0 24 24"><path fill="none" d="M0 0h24v24H0V0z"/><path d="M10.59 4.59C10.21 4.21 9.7 4 9.17 4H4c-1.1 0-1.99.9-1.99 2L2 18c0 1.1.9 2 2 2h16c1.1 0 2-.9 2-2V8c0-1.1-.9-2-2-2h-8l-1.41-1.41z"/></symbol><symbol id="group" viewBox="0 0 24 24"><path fill="none" d="M0 0h24v24H0V0z"/><path d="M16 11c1.66 0 2.99-1.34 2.99-3S17.66 5 16 5s-3 1.34-3 3 1.34 3 3 3zm-8 0c1.66 0 2.99-1.34 2.99-3S9.66 5 8 5 5 6.34 5 8s1.34 3 3 3zm0 2c-2.33 0-7 1.17-7 3.5V18c0 .55.45 1 1 1h12c.55 0 1-.45 1-1v-1.5c0-2.33-4.67-3.5-7-3.5zm8 0c-.29 0-.62.02-.97.05.02.01.03.03.04.04 1.14.83 1.93 1.94 1.93 3.41V18c0 .35-.07.69-.18 1H22c.55 0 1-.45 1-1v-1.5c0-2.33-4.67-3.5-7-3.5z"/></symbol><symbol id="in" viewBox="0 0 382 382"><path fill="#0077b7" d="M347.445 0H34.555C15.471 0 0 15.471 0 34.555v312.889C0 366.529 15.471 382 34.555 382h312.889C366.529 382 382 366.529 382 347.444V34.555C382 15.471 366.529 0 347.445 0zM118.207 329.844c0 5.554-4.502 10.056-10.056 10.056H65.345c-5.554 0-10.056-4.502-10.056-10.056V150.403c0-5.554 4.502-10.056 10.056-10.056h42.806c5.554 0 10.056 4.502 10.056 10.056v179.441zM86.748 123.432c-22.459 0-40.666-18.207-40.666-40.666S64.289 42.1 86.748 42.1s40.666 18.207 40.666 40.666-18.206 40.666-40.666 40.666zM341.91 330.654a9.247 9.247 0 0 1-9.246 9.246H286.73a9.247 9.247 0 0 1-9.246-9.246v-84.168c0-12.556 3.683-55.021-32.813-55.021-28.309 0-34.051 29.066-35.204 42.11v97.079a9.246 9.246 0 0 1-9.246 9.246h-44.426a9.247 9.247 0 0 1-9.246-9.246V149.593a9.247 9.247 0 0 1 9.246-9.246h44.426a9.247 9.247 0 0 1 9.246 9.246v15.655c10.497-15.753 26.097-27.912 59.312-27.912 73.552 0 73.131 68.716 73.131 106.472v86.846z"/></symbol><symbol id="home" viewBox="0 0 24 24"><path fill="none" d="M0 0h24v24H0V0z"/><path d="M10 19v-5h4v5c0 .55.45 1 1 1h3c.55 0 1-.45 1-1v-7h1.7c.46 0 .68-.57.33-.87L12.67 3.6c-.38-.34-.96-.34-1.34 0l-8.36 7.53c-.34.3-.13.87.33.87H5v7c0 .55.45 1 1 1h3c.55 0 1-.45 1-1z"/></symbol><symbol id="inbox" viewBox="0 0 24 24"><path fill="none" d="M0 0h24v24H0V0z"/><path d="M19 3H4.99c-1.11 0-1.98.89-1.98 2L3 19c0 1.1.88 2 1.99 2H19c1.1 0 2-.9 2-2V5a2 2 0 0 0-2-2zm0 12h-3.13c-.47 0-.85.34-.98.8-.35 1.27-1.52 2.2-2.89 2.2s-2.54-.93-2.89-2.2c-.13-.46-.51-.8-.98-.8H5V6c0-.55.45-1 1-1h12c.55 0 1 .45 1 1v9z"/></symbol><symbol id="info" viewBox="0 0 24 24"><path fill="none" d="M0 0h24v24H0V0z"/><path d="M12 2C6.48 2 2 6.48 2 12s4.48 10 10 10 10-4.48 10-10S17.52 2 12 2zm0 15c-.55 0-1-.45-1-1v-4c0-.55.45-1 1-1s1 .45 1 1v4c0 .55-.45 1-1 1zm1-8h-2V7h2v2z"/></symbol><symbol id="innovation" viewBox="0 0 24 24"><path fill="none" d="M0 0h24v24H0V0z"/><path d="M13 14v6c0 .55.45 1 1 1h6c.55 0 1-.45 1-1v-6c0-.55-.45-1-1-1h-6c-.55 0-1 .45-1 1zm-9 7h6c.55 0 1-.45 1-1v-6c0-.55-.45-1-1-1H4c-.55 0-1 .45-1 1v6c0 .55.45 1 1 1zM3 4v6c0 .55.45 1 1 1h6c.55 0 1-.45 1-1V4c0-.55-.45-1-1-1H4c-.55 0-1 .45-1 1zm12.95-1.6L11.7 6.64a.996.996 0 0 0 0 1.41l4.25 4.25c.39.39 1.02.39 1.41 0l4.25-4.25a.996.996 0 0 0 0-1.41L17.37 2.4c-.39-.39-1.03-.39-1.42 0z"/></symbol><symbol id="instagram" viewBox="0 0 32 32"><path d="M16 2.881c4.275 0 4.781.019 6.462.094 1.563.069 2.406.331 2.969.55a4.952 4.952 0 0 1 1.837 1.194 5.015 5.015 0 0 1 1.2 1.838c.219.563.481 1.412.55 2.969.075 1.688.094 2.194.094 6.463s-.019 4.781-.094 6.463c-.069 1.563-.331 2.406-.55 2.969a4.94 4.94 0 0 1-1.194 1.837 5.02 5.02 0 0 1-1.837 1.2c-.563.219-1.413.481-2.969.55-1.688.075-2.194.094-6.463.094s-4.781-.019-6.463-.094c-1.563-.069-2.406-.331-2.969-.55a4.952 4.952 0 0 1-1.838-1.194 5.02 5.02 0 0 1-1.2-1.837c-.219-.563-.481-1.413-.55-2.969-.075-1.688-.094-2.194-.094-6.463s.019-4.781.094-6.463c.069-1.563.331-2.406.55-2.969a4.964 4.964 0 0 1 1.194-1.838 5.015 5.015 0 0 1 1.838-1.2c.563-.219 1.412-.481 2.969-.55 1.681-.075 2.188-.094 6.463-.094zM16 0c-4.344 0-4.887.019-6.594.094-1.7.075-2.869.35-3.881.744-1.056.412-1.95.956-2.837 1.85a7.833 7.833 0 0 0-1.85 2.831C.444 6.538.169 7.7.094 9.4.019 11.113 0 11.656 0 16s.019 4.887.094 6.594c.075 1.7.35 2.869.744 3.881.413 1.056.956 1.95 1.85 2.837a7.82 7.82 0 0 0 2.831 1.844c1.019.394 2.181.669 3.881.744 1.706.075 2.25.094 6.594.094s4.888-.019 6.594-.094c1.7-.075 2.869-.35 3.881-.744 1.05-.406 1.944-.956 2.831-1.844s1.438-1.781 1.844-2.831c.394-1.019.669-2.181.744-3.881.075-1.706.094-2.25.094-6.594s-.019-4.887-.094-6.594c-.075-1.7-.35-2.869-.744-3.881a7.506 7.506 0 0 0-1.831-2.844A7.82 7.82 0 0 0 26.482.843C25.463.449 24.301.174 22.601.099c-1.712-.081-2.256-.1-6.6-.1z"/><path d="M16 7.781c-4.537 0-8.219 3.681-8.219 8.219s3.681 8.219 8.219 8.219 8.219-3.681 8.219-8.219A8.221 8.221 0 0 0 16 7.781zm0 13.55a5.331 5.331 0 1 1 0-10.663 5.331 5.331 0 0 1 0 10.663zM26.462 7.456a1.919 1.919 0 1 1-3.838 0 1.919 1.919 0 0 1 3.838 0z"/></symbol><symbol id="key" viewBox="0 0 24 24"><path fill="none" d="M0 0h24v24H0V0z"/><path d="M12.65 10a5.998 5.998 0 0 0-6.88-3.88c-2.29.46-4.15 2.29-4.63 4.58A6.006 6.006 0 0 0 7 18a5.99 5.99 0 0 0 5.65-4H17v2c0 1.1.9 2 2 2s2-.9 2-2v-2c1.1 0 2-.9 2-2s-.9-2-2-2h-8.35zM7 14c-1.1 0-2-.9-2-2s.9-2 2-2 2 .9 2 2-.9 2-2 2z"/></symbol><symbol id="jpg" viewBox="0 0 24 24"><path fill="none" d="M0 0h24v24H0V0z"/><path d="M21 19V5c0-1.1-.9-2-2-2H5c-1.1 0-2 .9-2 2v14c0 1.1.9 2 2 2h14c1.1 0 2-.9 2-2zM8.9 13.98l2.1 2.53 3.1-3.99c.2-.26.6-.26.8.01l3.51 4.68a.5.5 0 0 1-.4.8H6.02c-.42 0-.65-.48-.39-.81L8.12 14c.19-.26.57-.27.78-.02z"/></symbol><symbol id="left" viewBox="0 0 24 24"><path fill="none" d="M0 0h24v24H0V0z" opacity=".87"/><path d="M16.62 2.99a1.25 1.25 0 0 0-1.77 0L6.54 11.3a.996.996 0 0 0 0 1.41l8.31 8.31c.49.49 1.28.49 1.77 0s.49-1.28 0-1.77L9.38 12l7.25-7.25c.48-.48.48-1.28-.01-1.76z"/></symbol><symbol id="linkedin" viewBox="0 0 32 32"><path d="M29 0H3C1.35 0 0 1.35 0 3v26c0 1.65 1.35 3 3 3h26c1.65 0 3-1.35 3-3V3c0-1.65-1.35-3-3-3zM12 26H8V12h4v14zm-2-16c-1.106 0-2-.894-2-2s.894-2 2-2c1.106 0 2 .894 2 2s-.894 2-2 2zm16 16h-4v-8c0-1.106-.894-2-2-2s-2 .894-2 2v8h-4V12h4v2.481C18.825 13.35 20.087 12 21.5 12c2.488 0 4.5 2.238 4.5 5v9z"/></symbol><symbol id="location" viewBox="0 0 24 24"><path d="M12 2C8.13 2 5 5.13 5 9c0 5.25 7 13 7 13s7-7.75 7-13c0-3.87-3.13-7-7-7zm0 9.5a2.5 2.5 0 0 1 0-5 2.5 2.5 0 0 1 0 5z"/><path fill="none" d="M0 0h24v24H0z"/></symbol><symbol id="list" viewBox="0 0 24 24"><path fill="none" d="M0 0h24v24H0V0z" opacity=".87"/><path d="M4 14h2c.55 0 1-.45 1-1v-2c0-.55-.45-1-1-1H4c-.55 0-1 .45-1 1v2c0 .55.45 1 1 1zm0 5h2c.55 0 1-.45 1-1v-2c0-.55-.45-1-1-1H4c-.55 0-1 .45-1 1v2c0 .55.45 1 1 1zM4 9h2c.55 0 1-.45 1-1V6c0-.55-.45-1-1-1H4c-.55 0-1 .45-1 1v2c0 .55.45 1 1 1zm5 5h10c.55 0 1-.45 1-1v-2c0-.55-.45-1-1-1H9c-.55 0-1 .45-1 1v2c0 .55.45 1 1 1zm0 5h10c.55 0 1-.45 1-1v-2c0-.55-.45-1-1-1H9c-.55 0-1 .45-1 1v2c0 .55.45 1 1 1zM8 6v2c0 .55.45 1 1 1h10c.55 0 1-.45 1-1V6c0-.55-.45-1-1-1H9c-.55 0-1 .45-1 1z"/></symbol><symbol id="light" viewBox="0 0 24 24"><style>.st0{fill:#03a6ff}</style><path d="M22.1 20C4.2 19.1.6 5.8.6 5.8S3.8 5 4.7 7.7c0 0 0-1.2.9-.7 1 .3 2.4.9 2.4 1.9 0 .9-.3 2-.3 2s1-2 1.8-1.5c.7.7 2.9 2.6 2.6 4-.3 1.2-.6 1.8-.6 1.8s.9-1 1.2-.7c.4.3 1.9 1.3 1 2.9l1-.7s-.3.9-.7 1 .6-.1.6-.1 0 .1-.3.6c0 0 4.5 1.2 5.9.4 1.3-.7 3.2 1.8 3.2 1.8l-1.3-.4z" class="st0"/></symbol><symbol id="logout" viewBox="0 0 24 24"><path d="M14.1 11.1H6.2l3.5-3.4c.3-.3.3-.7 0-1s-.7-.3-1 0l-4.6 4.6c-.3.3-.3.7 0 1L8.7 17c.3.3.7.3 1 0s.3-.8 0-1l-3.4-3.4h7.8c.4 0 .7-.3.7-.7s-.3-.8-.7-.8z"/><path d="M12.4 21.6c-.6 0-1-.4-1-1s.4-1 1-1c4.3 0 7.7-3.5 7.7-7.7 0-4.3-3.5-7.7-7.7-7.7-.6 0-1-.4-1-1s.4-1 1-1c5.4 0 9.7 4.4 9.7 9.7s-4.3 9.7-9.7 9.7z"/></symbol><symbol id="login" viewBox="0 0 24 24"><path d="M4.6 12.6h7.9L9 16c-.3.3-.3.7 0 1s.7.3 1 0l4.6-4.6c.3-.3.3-.7 0-1L10 6.7c-.3-.3-.7-.3-1 0s-.3.8 0 1l3.4 3.4H4.6c-.4 0-.7.3-.7.7s.3.8.7.8z"/><path d="M12.4 21.6c-.6 0-1-.4-1-1s.4-1 1-1c4.3 0 7.7-3.5 7.7-7.7 0-4.3-3.5-7.7-7.7-7.7-.6 0-1-.4-1-1s.4-1 1-1c5.4 0 9.7 4.4 9.7 9.7s-4.3 9.7-9.7 9.7z"/></symbol><symbol id="map" viewBox="0 0 24 24"><path fill="none" d="M0 0h24v24H0V0z"/><path d="M14.65 4.98l-5-1.75c-.42-.15-.88-.15-1.3-.01L4.36 4.56C3.55 4.84 3 5.6 3 6.46v11.85c0 1.41 1.41 2.37 2.72 1.86l2.93-1.14c.22-.09.47-.09.69-.01l5 1.75c.42.15.88.15 1.3.01l3.99-1.34c.81-.27 1.36-1.04 1.36-1.9V5.69c0-1.41-1.41-2.37-2.72-1.86l-2.93 1.14c-.22.08-.46.09-.69.01zM15 18.89l-6-2.11V5.11l6 2.11v11.67z"/></symbol><symbol id="love" viewBox="0 0 24 24"><path fill="none" d="M0 0h24v24H0V0z"/><path d="M13.35 20.13c-.76.69-1.93.69-2.69-.01l-.11-.1C5.3 15.27 1.87 12.16 2 8.28c.06-1.7.93-3.33 2.34-4.29 2.64-1.8 5.9-.96 7.66 1.1 1.76-2.06 5.02-2.91 7.66-1.1 1.41.96 2.28 2.59 2.34 4.29.14 3.88-3.3 6.99-8.55 11.76l-.1.09z"/></symbol><symbol id="memory" viewBox="0 0 24 24"><path d="M14 9h-4c-.55 0-1 .45-1 1v4c0 .55.45 1 1 1h4c.55 0 1-.45 1-1v-4c0-.55-.45-1-1-1zm-1 4h-2v-2h2v2zm8-3c0-.55-.45-1-1-1h-1V7c0-1.1-.9-2-2-2h-2V4c0-.55-.45-1-1-1s-1 .45-1 1v1h-2V4c0-.55-.45-1-1-1s-1 .45-1 1v1H7c-1.1 0-2 .9-2 2v2H4c-.55 0-1 .45-1 1s.45 1 1 1h1v2H4c-.55 0-1 .45-1 1s.45 1 1 1h1v2c0 1.1.9 2 2 2h2v1c0 .55.45 1 1 1s1-.45 1-1v-1h2v1c0 .55.45 1 1 1s1-.45 1-1v-1h2c1.1 0 2-.9 2-2v-2h1c.55 0 1-.45 1-1s-.45-1-1-1h-1v-2h1c.55 0 1-.45 1-1zm-5 7H8c-.55 0-1-.45-1-1V8c0-.55.45-1 1-1h8c.55 0 1 .45 1 1v8c0 .55-.45 1-1 1z"/></symbol><symbol id="menu" viewBox="0 0 24 24"><path fill="none" d="M0 0h24v24H0V0z"/><path d="M4 18h16c.55 0 1-.45 1-1s-.45-1-1-1H4c-.55 0-1 .45-1 1s.45 1 1 1zm0-5h16c.55 0 1-.45 1-1s-.45-1-1-1H4c-.55 0-1 .45-1 1s.45 1 1 1zM3 7c0 .55.45 1 1 1h16c.55 0 1-.45 1-1s-.45-1-1-1H4c-.55 0-1 .45-1 1z"/></symbol><symbol id="money" viewBox="0 0 24 24"><path fill="none" d="M0 0h24v24H0V0z"/><path d="M12 2C6.48 2 2 6.48 2 12s4.48 10 10 10 10-4.48 10-10S17.52 2 12 2zm1.41 16.09v.58c0 .73-.6 1.33-1.33 1.33h-.01c-.73 0-1.33-.6-1.33-1.33v-.6c-1.33-.28-2.51-1.01-3.01-2.24-.23-.55.2-1.16.8-1.16h.24c.37 0 .67.25.81.6.29.75 1.05 1.27 2.51 1.27 1.96 0 2.4-.98 2.4-1.59 0-.83-.44-1.61-2.67-2.14-2.48-.6-4.18-1.62-4.18-3.67 0-1.72 1.39-2.84 3.11-3.21v-.6c0-.73.6-1.33 1.33-1.33h.01c.73 0 1.33.6 1.33 1.33v.62c1.38.34 2.25 1.2 2.63 2.26.2.55-.22 1.13-.81 1.13h-.26c-.37 0-.67-.26-.77-.62-.23-.76-.86-1.25-2.12-1.25-1.5 0-2.4.68-2.4 1.64 0 .84.65 1.39 2.67 1.91s4.18 1.39 4.18 3.91c-.02 1.83-1.39 2.83-3.13 3.16z"/></symbol><symbol id="module" viewBox="0 0 24 24"><path d="M4 11h5V5H4v6zm0 7h5v-6H4v6zm6 0h5v-6h-5v6zm6 0h5v-6h-5v6zm-6-7h5V5h-5v6zm6-6v6h5V5h-5z"/><path fill="none" d="M0 0h24v24H0z"/></symbol><symbol id="more" viewBox="0 0 24 24"><path fill="none" d="M0 0h24v24H0V0z"/><path d="M12 8c1.1 0 2-.9 2-2s-.9-2-2-2-2 .9-2 2 .9 2 2 2zm0 2c-1.1 0-2 .9-2 2s.9 2 2 2 2-.9 2-2-.9-2-2-2zm0 6c-1.1 0-2 .9-2 2s.9 2 2 2 2-.9 2-2-.9-2-2-2z"/></symbol><symbol id="multiselect" viewBox="0 0 24 24"><path fill="none" d="M0 0h24v24H0V0z"/><path d="M3 5h2V3c-1.1 0-2 .9-2 2zm0 8h2v-2H3v2zm4 8h2v-2H7v2zM3 9h2V7H3v2zm10-6h-2v2h2V3zm6 0v2h2c0-1.1-.9-2-2-2zM5 21v-2H3c0 1.1.9 2 2 2zm-2-4h2v-2H3v2zM9 3H7v2h2V3zm2 18h2v-2h-2v2zm8-8h2v-2h-2v2zm0 8c1.1 0 2-.9 2-2h-2v2zm0-12h2V7h-2v2zm0 8h2v-2h-2v2zm-4 4h2v-2h-2v2zm0-16h2V3h-2v2zM8 17h8c.55 0 1-.45 1-1V8c0-.55-.45-1-1-1H8c-.55 0-1 .45-1 1v8c0 .55.45 1 1 1zm1-8h6v6H9V9z"/></symbol><symbol id="nurse" viewBox="0 0 24 24"><path d="M20 6.5H4c-1.5 0-2.5 1.4-2.2 2.8l1.8 6.5c.3 1 1.1 1.7 2.2 1.7h12.7c1 0 1.9-.7 2.2-1.7l1.6-6.5c.2-1.4-.8-2.8-2.3-2.8zm-5.5 6.4H13v1.2c.1.7-.2 1-.9.9-.9 0-.9-.1-.9-1v-1.2H9.8c-.6 0-.8-.3-.7-.8 0-.5-.1-1.1.7-1h1.5V9.8c0-.9.1-.9.9-.9.7 0 .9.3.8.9v1.3h1.5c.7 0 .7.4.7.9-.1.4 0 .9-.7.9z"/></symbol><symbol id="notifications" viewBox="0 0 24 24"><path fill="none" d="M0 0h24v24H0V0z"/><path d="M12 22c1.1 0 2-.9 2-2h-4a2 2 0 0 0 2 2zm6-6v-5c0-3.07-1.64-5.64-4.5-6.32V4c0-.83-.67-1.5-1.5-1.5s-1.5.67-1.5 1.5v.68C7.63 5.36 6 7.92 6 11v5l-1.29 1.29c-.63.63-.19 1.71.7 1.71h13.17c.89 0 1.34-1.08.71-1.71L18 16z"/></symbol><symbol id="pdf" viewBox="0 0 24 24"><style>.st0{fill:#db4437}</style><path d="M18.7 3H5.2C4 3 2.9 4 2.9 5.3v13.5c0 1.2 1 2.3 2.3 2.3h13.5c1.2 0 2.3-1 2.3-2.3V5.3C21 4 20 3 18.7 3zm-9.5 8.4c0 .9-.8 1.7-1.7 1.7H6.4v2.3H4.7V8.6h2.8c.9 0 1.7.8 1.7 1.7v1.1zm5.6 2.3c0 .9-.8 1.7-1.7 1.7h-2.8V8.6h2.8c.9 0 1.7.8 1.7 1.7v3.4zm4.5-3.4h-1.7v1.1h1.7v1.7h-1.7v2.3h-1.7V8.6h3.4v1.7zM6.4 11.4h1.1v-1.1H6.4v1.1zm5.6 2.3h1.1v-3.4H12v3.4z" class="st0"/></symbol><symbol id="people" viewBox="0 0 24 24"><path fill="none" d="M0 0h24v24H0V0z"/><path d="M16 11c1.66 0 2.99-1.34 2.99-3S17.66 5 16 5s-3 1.34-3 3 1.34 3 3 3zm-8 0c1.66 0 2.99-1.34 2.99-3S9.66 5 8 5 5 6.34 5 8s1.34 3 3 3zm0 2c-2.33 0-7 1.17-7 3.5V18c0 .55.45 1 1 1h12c.55 0 1-.45 1-1v-1.5c0-2.33-4.67-3.5-7-3.5zm8 0c-.29 0-.62.02-.97.05.02.01.03.03.04.04 1.14.83 1.93 1.94 1.93 3.41V18c0 .35-.07.69-.18 1H22c.55 0 1-.45 1-1v-1.5c0-2.33-4.67-3.5-7-3.5z"/></symbol><symbol id="percent" viewBox="0 0 1792 1792"><path d="M1408 1280q0-52-38-90t-90-38-90 38-38 90 38 90 90 38 90-38 38-90zM640 512q0-52-38-90t-90-38-90 38-38 90 38 90 90 38 90-38 38-90zm1024 768q0 159-112.5 271.5T1280 1664t-271.5-112.5T896 1280t112.5-271.5T1280 896t271.5 112.5T1664 1280zm-96-1088q0 20-13 38L499 1638q-19 26-51 26H288q-26 0-45-19t-19-45q0-20 13-38L1293 154q19-26 51-26h160q26 0 45 19t19 45zM896 512q0 159-112.5 271.5T512 896 240.5 783.5 128 512t112.5-271.5T512 128t271.5 112.5T896 512z"/></symbol><symbol id="person" viewBox="0 0 24 24"><path fill="none" d="M0 0h24v24H0V0z"/><path d="M12 12c2.21 0 4-1.79 4-4s-1.79-4-4-4-4 1.79-4 4 1.79 4 4 4zm0 2c-2.67 0-8 1.34-8 4v1c0 .55.45 1 1 1h14c.55 0 1-.45 1-1v-1c0-2.66-5.33-4-8-4z"/></symbol><symbol id="phone" viewBox="0 0 24 24"><path fill="none" d="M0 0h24v24H0V0z"/><path d="M19.23 15.26l-2.54-.29a1.99 1.99 0 0 0-1.64.57l-1.84 1.84a15.045 15.045 0 0 1-6.59-6.59l1.85-1.85c.43-.43.64-1.03.57-1.64l-.29-2.52a2.001 2.001 0 0 0-1.99-1.77H5.03c-1.13 0-2.07.94-2 2.07.53 8.54 7.36 15.36 15.89 15.89 1.13.07 2.07-.87 2.07-2v-1.73c.01-1.01-.75-1.86-1.76-1.98z"/></symbol><symbol id="print" viewBox="0 0 24 24"><path fill="none" d="M0 0h24v24H0V0z"/><path d="M19 8H5c-1.66 0-3 1.34-3 3v4c0 1.1.9 2 2 2h2v2c0 1.1.9 2 2 2h8c1.1 0 2-.9 2-2v-2h2c1.1 0 2-.9 2-2v-4c0-1.66-1.34-3-3-3zm-4 11H9c-.55 0-1-.45-1-1v-4h8v4c0 .55-.45 1-1 1zm4-7c-.55 0-1-.45-1-1s.45-1 1-1 1 .45 1 1-.45 1-1 1zm-2-9H7c-.55 0-1 .45-1 1v2c0 .55.45 1 1 1h10c.55 0 1-.45 1-1V4c0-.55-.45-1-1-1z"/></symbol><symbol id="plane" viewBox="0 0 24 24"><path d="M10.3 6.3c1.1.8 2.2.8 3.4 0 .1.2.1.3.2.5 1.6 4.3 3.1 8.6 4.7 12.9.3.8.1 1.4-.2 2.2-.7-.3-1.3-.7-1.5-1.5-1.5-4.2-3-8.4-4.6-12.6-.1-.2-.1-.4-.3-.7-.4 1-.7 1.8-1 2.7-1.3 3.5-2.6 7-3.8 10.5-.3.8-.8 1.2-1.5 1.5-.3-.7-.5-1.4-.2-2.1 1.4-3.7 2.7-7.3 4-11 .2-.8.5-1.6.8-2.4z"/><path d="M14.4 18.5c-.8-.6-.8-.6-1-.3l.3.3.2.2-1.9 1.9c-.6-.6-1.2-1.3-1.8-1.9 1-1.3 1-1.3.8-1.5-.4.4-.8.9-1.3 1.5-.3-.4-.6-.7-.8-1-.1-.1-.2-.4-.1-.5.4-1.2.9-2.5 1.4-3.8.6.7 1.1 1.3 1.8 2 .7-.8 1.2-1.4 1.8-2.1.5 1.5 1 2.7 1.4 4 0 .1-.1.4-.2.5-.2.2-.4.4-.6.7zm-7.9-3.2c-.4-.4-.7-.8-1.1-1.2.4-.3.9-.7 1.3-1.1-.4-.5-.4-.5-.9 0-.2.3-.4.6-.6.8-.8-.8-1.4-1.4-2-2.1.1-.2.3-.4.4-.7l-.2-.2c-.2.2-.4.4-.6.5-.6-.7-1.3-1.3-1.9-1.9l2.7-2.7C5 8.2 6.4 9.6 7.7 11c.1.1.2.3.1.5-.4 1.2-.8 2.4-1.3 3.8zm13.8-8.5L23 9.5l-1.9 1.9c-.4-.4-.8-.8-1.3-1.1 0 0-.2.1-.4.3.5.4 1 .8 1.4 1.2-.7.7-1.4 1.3-2 2-.2-.1-.4-.3-.6-.5-.3.3-.3.3.2.9l-1.1 1.1c-.5-1.3-.9-2.6-1.4-3.8 0-.1 0-.3.1-.4 1.6-1.5 3-2.9 4.3-4.3zM12 6.4c-1.2 0-2.1-.9-2.1-2.1 0-1.2.9-2.1 2.1-2.1 1.2 0 2.1.9 2.1 2.1 0 1.1-1 2.1-2.1 2.1z"/></symbol><symbol id="quality" viewBox="0 0 24 24"><path fill="none" d="M0 0h24v24H0V0z"/><path d="M19 3h-4.18C14.4 1.84 13.3 1 12 1s-2.4.84-2.82 2H5c-1.1 0-2 .9-2 2v14c0 1.1.9 2 2 2h14c1.1 0 2-.9 2-2V5c0-1.1-.9-2-2-2zm-7 0c.55 0 1 .45 1 1s-.45 1-1 1-1-.45-1-1 .45-1 1-1zM9.29 16.29L6.7 13.7a.996.996 0 1 1 1.41-1.41L10 14.17l5.88-5.88a.996.996 0 1 1 1.41 1.41l-6.59 6.59a.996.996 0 0 1-1.41 0z"/></symbol></svg>