<svg id="Design_Here" data-name="Design Here" xmlns="http://www.w3.org/2000/svg" viewBox="0 0 192 192"><defs><style>.cls-1{fill-rule:evenodd;}.cls-2{fill:#bb8f22;}.cls-3{fill:#ffc32e;}.cls-4{fill:#d39d26;}.cls-5{fill:#e1ac28;}.cls-6{fill:#fcb81f;}</style></defs><title>Icon Template  - Tamayo</title><polygon class="cls-1" points="82.72 15.33 35.65 62.4 62.49 89.25 136.4 15.33 82.72 15.33"/><polygon class="cls-1" points="176.67 82.81 129.51 35.65 102.67 62.49 176.67 136.49 176.67 82.81"/><polygon class="cls-1" points="55.51 176.67 109.19 176.67 156.31 129.55 129.47 102.71 55.51 176.67"/><polygon class="cls-1" points="15.33 109.2 62.49 156.35 89.33 129.51 15.33 55.51 15.33 109.2"/><polygon class="cls-2" points="96 69.16 96 79.22 112.78 96 122.84 96 96 69.16"/><polygon class="cls-3" points="69.16 96 79.22 96 96 79.22 96 69.16 69.16 96"/><polygon class="cls-4" points="112.78 96 96 112.78 96 122.84 122.84 96 112.78 96"/><polygon class="cls-5" points="79.22 96 69.16 96 96 122.84 96 112.78 79.22 96"/><rect class="cls-6" x="84.14" y="84.14" width="23.73" height="23.73" transform="translate(96 -39.76) rotate(45)"/></svg>