<svg xmlns="http://www.w3.org/2000/svg" id="Layer_1" viewBox="0 0 24 24" width="24" height="24"><style>.st0{fill:#db4437}</style><path d="M18.7 3H5.2C4 3 2.9 4 2.9 5.3v13.5c0 1.2 1 2.3 2.3 2.3h13.5c1.2 0 2.3-1 2.3-2.3V5.3C21 4 20 3 18.7 3zm-9.5 8.4c0 .9-.8 1.7-1.7 1.7H6.4v2.3H4.7V8.6h2.8c.9 0 1.7.8 1.7 1.7v1.1zm5.6 2.3c0 .9-.8 1.7-1.7 1.7h-2.8V8.6h2.8c.9 0 1.7.8 1.7 1.7v3.4zm4.5-3.4h-1.7v1.1h1.7v1.7h-1.7v2.3h-1.7V8.6h3.4v1.7zM6.4 11.4h1.1v-1.1H6.4v1.1zm5.6 2.3h1.1v-3.4H12v3.4z" class="st0"/></svg>