<svg xmlns="http://www.w3.org/2000/svg" width="24" height="24" viewBox="0 0 24 24"><path d="M10.3 6.3c1.1.8 2.2.8 3.4 0 .1.2.1.3.2.5 1.6 4.3 3.1 8.6 4.7 12.9.3.8.1 1.4-.2 2.2-.7-.3-1.3-.7-1.5-1.5-1.5-4.2-3-8.4-4.6-12.6-.1-.2-.1-.4-.3-.7-.4 1-.7 1.8-1 2.7-1.3 3.5-2.6 7-3.8 10.5-.3.8-.8 1.2-1.5 1.5-.3-.7-.5-1.4-.2-2.1 1.4-3.7 2.7-7.3 4-11 .2-.8.5-1.6.8-2.4z"/><path d="M14.4 18.5c-.8-.6-.8-.6-1-.3l.3.3.2.2-1.9 1.9c-.6-.6-1.2-1.3-1.8-1.9 1-1.3 1-1.3.8-1.5-.4.4-.8.9-1.3 1.5-.3-.4-.6-.7-.8-1-.1-.1-.2-.4-.1-.5.4-1.2.9-2.5 1.4-3.8.6.7 1.1 1.3 1.8 2 .7-.8 1.2-1.4 1.8-2.1.5 1.5 1 2.7 1.4 4 0 .1-.1.4-.2.5-.2.2-.4.4-.6.7zm-7.9-3.2c-.4-.4-.7-.8-1.1-1.2.4-.3.9-.7 1.3-1.1-.4-.5-.4-.5-.9 0-.2.3-.4.6-.6.8-.8-.8-1.4-1.4-2-2.1.1-.2.3-.4.4-.7l-.2-.2c-.2.2-.4.4-.6.5-.6-.7-1.3-1.3-1.9-1.9l2.7-2.7C5 8.2 6.4 9.6 7.7 11c.1.1.2.3.1.5-.4 1.2-.8 2.4-1.3 3.8zm13.8-8.5L23 9.5l-1.9 1.9c-.4-.4-.8-.8-1.3-1.1 0 0-.2.1-.4.3.5.4 1 .8 1.4 1.2-.7.7-1.4 1.3-2 2-.2-.1-.4-.3-.6-.5-.3.3-.3.3.2.9l-1.1 1.1c-.5-1.3-.9-2.6-1.4-3.8 0-.1 0-.3.1-.4 1.6-1.5 3-2.9 4.3-4.3zM12 6.4c-1.2 0-2.1-.9-2.1-2.1 0-1.2.9-2.1 2.1-2.1 1.2 0 2.1.9 2.1 2.1 0 1.1-1 2.1-2.1 2.1z"/></svg>