<svg xmlns="http://www.w3.org/2000/svg" id="Design_Here" width="192" height="192" viewBox="0 0 192 192"><defs><style>.cls-1{fill:#fff;fill-rule:evenodd}.cls-2{fill:#bb8f22}.cls-3{fill:#ffc32e}.cls-4{fill:#d39d26}.cls-5{fill:#e1ac28}.cls-6{fill:#fcb81f}</style></defs><path d="M82.72 15.33L35.65 62.4l26.84 26.85 73.91-73.92H82.72zm93.95 67.48l-47.16-47.16-26.84 26.84 74 74V82.81zM55.51 176.67h53.68l47.12-47.12-26.84-26.84-73.96 73.96zM15.33 109.2l47.16 47.15 26.84-26.84-74-74v53.69z" class="cls-1"/><path d="M96 69.16v10.06L112.78 96h10.06L96 69.16z" class="cls-2"/><path d="M69.16 96h10.06L96 79.22V69.16L69.16 96z" class="cls-3"/><path d="M112.78 96L96 112.78v10.06L122.84 96h-10.06z" class="cls-4"/><path d="M79.22 96H69.16L96 122.84v-10.06L79.22 96z" class="cls-5"/><path d="M84.14 84.14h23.73v23.73H84.14z" class="cls-6" transform="rotate(45 95.995 96.002)"/></svg>