<svg xmlns="http://www.w3.org/2000/svg" id="Layer_1" width="24" height="24" viewBox="0 0 24 24"><style>.st0{fill:none}</style><path d="M0 0h24v24H0V0z" class="st0"/><path d="M19.4 7.4l-4.8-4.8c-.4-.4-.9-.6-1.4-.6H6c-1.1 0-2 .9-2 2v16c0 1.1.9 2 2 2h12c1.1 0 2-.9 2-2V8.8c0-.5-.2-1-.6-1.4zm-6.5 11h-2v-2h2v2zm0-4.1c-.1.2-.1.4-.1.7H11c0-.4.1-.8.2-1.1.1-.2.1-.3.2-.5.7-1.3 2.2-1.5 2.2-2.8 0-.9-.8-1.8-1.8-1.8-.8 0-1.4.5-1.7 1.2-.1.3-.4.5-.7.5-.6 0-1-.6-.8-1.1.5-1.5 2-2.5 3.8-2.3 1.5.2 2.8 1.5 3 3 .3 2.4-1.9 2.8-2.5 4.2z"/></svg>